<svg width="135" height="24" viewBox="0 0 135 24" fill="none" xmlns="http://www.w3.org/2000/svg">
<path d="M0.192 4.92C0.192 4.92 0.224 3.768 0.16 0.759998C0.16 0.759998 3.52 0.792 11.104 0.664C11.104 0.664 11.008 2.232 11.04 4.92C11.04 4.92 9.728 4.888 7.776 4.888C7.776 8.056 7.776 13.464 7.904 23.128C7.904 23.128 6.432 23.096 3.552 23.16C3.552 23.16 3.584 15.992 3.488 4.888L0.192 4.92ZM12.1178 22.968C12.1178 22.968 12.1497 18.648 12.0218 6.904C12.0218 6.904 13.4298 6.936 16.2458 6.872C16.2458 6.872 16.2138 12.76 16.3738 22.936C16.3738 22.936 14.5818 22.936 12.1178 22.968ZM14.1658 5.336C12.4058 5.336 11.5098 4.312 11.5098 2.584C11.5098 0.952 12.5018 0.0239983 14.1978 0.0239983C15.8618 0.0239983 16.7578 1.144 16.7578 2.616C16.7578 4.152 15.8938 5.336 14.1658 5.336ZM22.2763 22.584C19.4923 22.52 18.0203 22.52 18.0203 22.52C18.1483 8.344 18.0523 1.272 18.0523 1.272C20.8683 1.368 22.3083 1.368 22.3083 1.368C22.1803 17.592 22.2763 22.584 22.2763 22.584ZM23.317 11.128C23.349 8.28 23.285 7.352 23.285 7.352C23.829 7.384 24.341 7.384 24.853 7.384C24.885 4.888 24.917 3.288 24.917 3.288C27.861 3.352 29.045 3.32 29.045 3.32C29.045 3.32 28.981 5.016 28.949 7.448C30.549 7.48 31.605 7.448 31.605 7.448C31.541 10.456 31.573 11.16 31.573 11.16C30.645 11.128 29.781 11.128 28.949 11.128C28.949 13.048 28.949 15.096 29.013 17.112C29.045 18.264 29.557 18.808 30.613 18.808C30.901 18.808 31.253 18.776 31.637 18.68L31.893 22.616C30.901 22.872 30.005 23 29.205 23C26.517 23 24.885 21.688 24.853 18.36C24.821 15.736 24.789 13.304 24.821 11.128C24.149 11.096 23.317 11.128 23.317 11.128ZM38.2743 23.352C33.6663 23.352 32.4183 19.736 32.4183 14.872C32.4183 10.296 34.0182 6.744 38.2103 6.744C42.8823 6.744 44.0983 10.808 43.7783 16.152C43.7783 16.152 41.0263 16.184 36.8023 16.248C36.8983 19.096 37.3463 20.28 38.3063 20.28C39.1063 20.28 39.5223 19.352 39.5863 17.4C39.5863 17.4 41.7623 17.432 43.9063 17.496C43.5543 21.176 41.4743 23.352 38.2743 23.352ZM38.1783 9.592C37.2823 9.592 36.8983 11 36.8023 13.752C37.6663 13.752 38.4983 13.72 39.3943 13.688C39.4263 11.096 39.0743 9.592 38.1783 9.592ZM56.535 22.776C56.535 22.776 55.223 22.744 53.047 22.744C53.047 22.744 53.079 21.944 53.111 20.536C52.471 22.168 51.255 23.128 49.719 23.128C46.775 23.128 44.887 20.824 44.887 15.096C44.887 10.36 46.391 7.192 49.463 7.192C50.775 7.192 51.767 8.024 52.375 9.176C52.343 7.224 52.279 4.28 52.119 0.664C52.119 0.664 53.015 0.727999 56.599 0.631998C56.599 0.631998 56.439 10.264 56.535 22.776ZM50.871 20.184C51.703 20.184 52.247 19.192 52.247 15.352C52.247 11.832 51.735 10.328 50.807 10.328C50.007 10.328 49.495 11.736 49.495 15.256C49.495 18.936 50.039 20.184 50.871 20.184ZM62.9108 4.92C62.9108 4.92 62.9428 3.768 62.8788 0.759998C62.8788 0.759998 66.2388 0.792 73.8228 0.664C73.8228 0.664 73.7268 2.232 73.7588 4.92C73.7588 4.92 72.4468 4.888 70.4948 4.888C70.4948 8.056 70.4948 13.464 70.6228 23.128C70.6228 23.128 69.1508 23.096 66.2708 23.16C66.2708 23.16 66.3028 15.992 66.2068 4.888L62.9108 4.92ZM78.3665 23.32C73.9825 23.32 72.5745 19.928 72.5745 14.808C72.5745 10.04 74.4305 6.712 78.4305 6.712C82.5905 6.712 84.2545 10.136 84.2545 14.936C84.2545 20.824 82.1745 23.32 78.3665 23.32ZM78.4305 20.472C79.3905 20.472 79.7745 19 79.7745 14.968C79.7745 11.256 79.3905 9.656 78.4305 9.656C77.4065 9.656 77.0545 11.288 77.0545 14.808C77.0545 19.192 77.4065 20.472 78.4305 20.472ZM94.9008 23.224C94.1328 15.96 93.5568 11.8 93.5568 11.8C92.5328 19.16 92.2128 22.648 92.2128 22.648C88.3088 22.488 86.6128 22.52 86.6128 22.52C85.3968 12.824 84.5648 7.352 84.5648 7.352C86.5807 7.32 88.8848 7.256 88.8848 7.256C89.4608 16.408 89.7488 18.936 89.7488 18.936C90.9968 10.328 91.3488 6.904 91.3488 6.904C94.6768 6.872 95.7328 6.936 95.7328 6.936C97.0448 17.112 97.4288 19.352 97.4288 19.352C98.1328 9.496 98.1968 6.424 98.1968 6.424C101.109 6.552 102.645 6.52 102.645 6.52C101.109 17.784 100.533 23.192 100.533 23.192C96.6288 23.16 94.9008 23.224 94.9008 23.224ZM108.806 23.352C104.198 23.352 102.95 19.736 102.95 14.872C102.95 10.296 104.549 6.744 108.742 6.744C113.414 6.744 114.63 10.808 114.31 16.152C114.31 16.152 111.558 16.184 107.334 16.248C107.43 19.096 107.878 20.28 108.838 20.28C109.638 20.28 110.054 19.352 110.118 17.4C110.118 17.4 112.294 17.432 114.438 17.496C114.086 21.176 112.006 23.352 108.806 23.352ZM108.71 9.592C107.814 9.592 107.43 11 107.334 13.752C108.198 13.752 109.03 13.72 109.926 13.688C109.958 11.096 109.606 9.592 108.71 9.592ZM115.77 23.064C115.77 23.064 115.802 14.872 115.706 7.128C115.706 7.128 116.442 7.192 119.226 7.096C119.226 7.096 119.13 8.248 119.13 9.912C119.866 7.992 121.722 6.68 123.482 6.616C123.482 6.616 123.386 7.832 123.322 10.968C121.114 11.384 120.09 12.824 119.994 15.704C119.93 18.712 120.058 23.032 120.058 23.032C120.058 23.032 118.906 23.032 115.77 23.064ZM129.354 23.416C125.802 23.416 123.754 21.496 123.978 17.24C123.978 17.24 125.354 17.272 128.042 17.432C127.914 19.352 128.266 20.28 129.354 20.28C129.962 20.28 130.506 19.864 130.506 18.808C130.506 18.04 130.218 17.336 127.786 16.344C125.162 15.288 123.978 13.752 123.978 11.192C123.978 8.664 125.802 6.584 129.226 6.584C132.81 6.584 134.474 9.112 134.25 12.952C134.25 12.952 132.554 12.856 130.378 12.856C130.538 11.032 130.25 9.816 129.194 9.816C128.362 9.816 127.946 10.488 127.946 11.256C127.946 12.376 128.554 13.048 130.602 13.944C133.706 15.32 134.506 16.76 134.506 18.808C134.506 22.136 132.138 23.416 129.354 23.416Z" fill="white"/>
</svg>
